<svg width="14" height="7" viewBox="0 0 14 7" fill="none" xmlns="http://www.w3.org/2000/svg">
<path fill-rule="evenodd" clip-rule="evenodd" d="M7.0032 0.015625C8.5744 0.0202937 10.0951 0.571491 11.3043 1.57469C12.5136 2.57788 13.3362 3.97056 13.631 5.51389C13.741 6.08976 13.3633 6.64575 12.7874 6.75574C12.2116 6.86573 11.6556 6.48807 11.5456 5.91221C11.3433 4.85301 10.7788 3.89719 9.9488 3.20869C9.1197 2.52086 8.0773 2.14264 7.0001 2.1387C5.9268 2.14266 4.888 2.51805 4.0601 3.20115C3.2313 3.88493 2.6652 4.83476 2.458 5.88898C2.3449 6.46425 1.7869 6.83892 1.2116 6.72584C0.636348 6.61277 0.261668 6.05476 0.374748 5.47949C0.676658 3.94358 1.5015 2.55975 2.7089 1.56355C3.9163 0.567343 5.4316 0.0203345 6.9969 0.0156251L7 1.07716L7.0032 0.015625Z" fill="#090909"/>
</svg>
