<svg width="32" height="25" viewBox="0 0 32 25" fill="none" xmlns="http://www.w3.org/2000/svg">
<path fill-rule="evenodd" clip-rule="evenodd" d="M6.39277 0.11564C6.40728 0.11504 6.4218 0.11475 6.43633 0.11475H25.5638C25.5783 0.11475 25.5928 0.11504 25.6073 0.11564C26.4348 0.14962 27.2201 0.49016 27.8104 1.071C28.3855 1.6369 28.7355 2.3915 28.797 3.1945L31.8211 21.1005C31.8227 21.11 31.8242 21.1195 31.8255 21.129C31.8911 21.594 31.8593 22.0675 31.7321 22.5195C31.6048 22.9716 31.385 23.3922 31.0865 23.7547C30.788 24.1172 30.4173 24.4136 29.9981 24.6252C29.5789 24.8367 29.1202 24.9588 28.6513 24.9836C28.6326 24.9846 28.6139 24.9851 28.5952 24.9851H3.40487C3.38618 24.9851 3.36748 24.9846 3.34881 24.9836C2.87987 24.9588 2.42123 24.8367 2.00201 24.6252C1.58278 24.4136 1.21214 24.1172 0.913629 23.7547C0.615118 23.3922 0.395262 22.9716 0.268028 22.5195C0.140794 22.0675 0.108963 21.594 0.174558 21.129C0.175901 21.1195 0.177373 21.11 0.178973 21.1005L3.20313 3.1945C3.26458 2.3915 3.6146 1.6369 4.18969 1.071C4.78001 0.49016 5.56528 0.14962 6.39277 0.11564ZM6.46151 2.2378C6.16737 2.2544 5.88905 2.3774 5.67876 2.5843C5.4641 2.7956 5.33567 3.0791 5.31846 3.3798C5.31623 3.4187 5.31186 3.4574 5.30537 3.4959L2.27517 21.4377C2.25292 21.6072 2.26533 21.7796 2.31169 21.9443C2.35915 22.1129 2.44116 22.2698 2.55252 22.405C2.66388 22.5403 2.80214 22.6509 2.95853 22.7298C3.10783 22.8051 3.27053 22.85 3.43717 22.862H28.5629C28.7296 22.85 28.8923 22.8051 29.0416 22.7298C29.198 22.6509 29.3362 22.5403 29.4476 22.405C29.5589 22.2698 29.641 22.1129 29.6884 21.9443C29.7348 21.7796 29.7472 21.6072 29.7249 21.4377L26.6947 3.4959C26.6882 3.4574 26.6839 3.4187 26.6816 3.3798C26.6644 3.0791 26.536 2.7956 26.3213 2.5843C26.111 2.3774 25.8327 2.2544 25.5386 2.2378H6.46151Z" fill="#090909"/>
</svg>
